<?xml version="1.0" encoding="UTF-8" standalone="no"?><!DOCTYPE svg PUBLIC "-//W3C//DTD SVG 1.1//EN" "http://www.w3.org/Graphics/SVG/1.1/DTD/svg11.dtd"><svg width="100%" height="100%" viewBox="0 0 65 70" version="1.1" xmlns="http://www.w3.org/2000/svg" xmlns:xlink="http://www.w3.org/1999/xlink" xml:space="preserve" xmlns:serif="http://www.serif.com/" style="fill-rule:evenodd;clip-rule:evenodd;stroke-linejoin:round;stroke-miterlimit:2;"><g><path d="M25.86,65.273l-2.63,3.447l1.162,0.904l1.468,0l-0,-4.351Zm-21.42,-30.461l4.183,1.049l-4.183,-1.049Zm8.568,-2.56l-3.057,3.068l3.057,-3.068Zm7.827,9.626l-1.936,-3.887l1.936,3.887Zm-1.672,-18.12l4.054,-1.479l-4.054,1.479Zm0,-19.406l0,-4.352l0,4.352Zm8.839,26.109l-0,4.351l-0,-4.351Zm2.31,-4.352l-4.31,0l4.31,0Zm0.45,-1.959l-3.753,-2.139l3.753,2.139Zm5.807,-2.09l0,-4.352l0,4.352Zm4.284,8.401l0,-4.352l0,4.352Zm2.142,-4.352l-4.31,0l4.31,0Zm6.27,-4.049l0,-4.352l0,4.352Zm4.44,8.401l-0,4.351l-0,-4.351Zm2.142,-4.352l-0,-4.351l-0,4.351Zm4.284,10.879l-4.31,-0l4.31,-0Zm-2.142,15.23l3.456,2.601l-3.456,-2.601Zm-6.426,8.703l-3.456,-2.601l-0.854,1.158l-0,1.443l4.31,0Zm-2.298,4.352l0,-4.352l0,4.352Zm-6.27,-4.352l0,-4.351l0,4.351Zm-4.284,4.352l0,4.351l3.066,0l1.006,-2.924l-4.072,-1.427Zm12.852,-8.703l-0,4.351l4.31,0l-0,-4.351l-4.31,-0Zm-0,-17.406l4.31,-0l-0,-4.352l-4.31,0l-0,4.352Zm-4.284,-0l0,-4.352l-4.31,0l-0,4.352l4.31,-0Zm0,17.406l-4.31,-0l-0,4.351l4.31,0l0,-4.351Zm-21.419,8.703c2.629,-3.448 2.63,-3.448 2.63,-3.448c0,0 0,0.001 0,0.001c0,-0 0,-0 0,-0c0,-0.001 -0.001,-0.001 -0.002,-0.002c-0.003,-0.002 -0.053,-0.041 -0.084,-0.066c-0.063,-0.049 -0.158,-0.125 -0.283,-0.225c-0.249,-0.199 -0.615,-0.495 -1.066,-0.868c-0.904,-0.749 -2.141,-1.803 -3.474,-3.021c-2.782,-2.545 -5.559,-5.433 -6.871,-7.655l-7.404,4.458c2.033,3.441 5.682,7.08 8.489,9.647c1.462,1.337 2.81,2.485 3.793,3.3c0.493,0.407 0.896,0.734 1.18,0.96c0.142,0.114 0.254,0.203 0.332,0.265c0.039,0.03 0.123,0.096 0.125,0.098c0.001,0.001 0.002,0.001 0.003,0.002c0,0 0.001,0 0.001,0c0,0.001 0.001,0.001 2.631,-3.446Zm-9.15,-15.284c-0.918,-1.554 -2.021,-3.182 -3.053,-4.702c-1.063,-1.567 -2.066,-3.043 -2.928,-4.466c-0.87,-1.437 -1.483,-2.64 -1.826,-3.622c-0.357,-1.023 -0.27,-1.38 -0.28,-1.338l-8.366,-2.098c-0.568,2.307 -0.106,4.55 0.516,6.331c0.637,1.822 1.608,3.625 2.601,5.266c1.002,1.654 2.141,3.326 3.172,4.846c1.062,1.566 2.006,2.964 2.76,4.241l7.404,-4.458Zm-8.087,-14.128c0.295,-1.197 0.758,-1.213 0.547,-1.147c-0.08,0.025 -0.111,-0.001 -0.031,0.024c0.096,0.03 0.39,0.153 0.812,0.582l6.114,-6.136c-2.521,-2.56 -5.99,-3.871 -9.459,-2.779c-3.38,1.063 -5.529,4.025 -6.349,7.358l8.366,2.098Zm1.328,-0.541c1.186,1.205 2.193,3.156 3.691,5.68c0.611,1.029 1.449,2.391 2.449,3.403c0.512,0.518 1.335,1.228 2.481,1.633c1.314,0.465 2.812,0.435 4.2,-0.27l-3.873,-7.775c0.83,-0.422 1.77,-0.435 2.522,-0.169c0.582,0.206 0.837,0.5 0.772,0.434c-0.154,-0.156 -0.506,-0.634 -1.156,-1.729c-1.022,-1.722 -2.814,-5.15 -4.972,-7.343l-6.114,6.136Zm12.821,10.446c1.619,-0.822 2.379,-2.24 2.728,-3.129c0.372,-0.942 0.537,-1.928 0.618,-2.771c0.165,-1.707 0.059,-3.7 -0.165,-5.642c-0.454,-3.916 -1.5,-8.492 -2.736,-11.945l-8.107,2.958c0.993,2.776 1.898,6.694 2.281,9.998c0.193,1.667 0.227,2.965 0.148,3.789c-0.041,0.422 -0.093,0.511 -0.049,0.398c0.023,-0.059 0.348,-0.892 1.409,-1.431l3.873,7.775Zm0.445,-23.487c-0.996,-2.78 -2.04,-7.239 -2.299,-10.872c-0.134,-1.877 -0.023,-3.095 0.146,-3.673c0.078,-0.271 0.074,-0.058 -0.248,0.269c-0.432,0.437 -1.064,0.7 -1.653,0.7l0,-8.703c-1.727,-0 -3.283,0.675 -4.451,1.857c-1.058,1.071 -1.61,2.363 -1.919,3.425c-0.608,2.088 -0.63,4.553 -0.473,6.75c0.322,4.513 1.555,9.757 2.79,13.205l8.107,-2.958Zm-4.054,-13.576c0.419,0 0.307,0.083 0.082,-0.087c-0.15,-0.114 -0.035,-0.114 0.232,0.493c0.277,0.63 0.546,1.5 0.927,2.855c0.356,1.269 0.791,2.888 1.364,4.635l8.183,-2.737c-0.498,-1.517 -0.866,-2.89 -1.254,-4.272c-0.365,-1.297 -0.782,-2.739 -1.342,-4.012c-0.57,-1.297 -1.443,-2.793 -2.941,-3.927c-1.573,-1.19 -3.392,-1.651 -5.251,-1.651l0,8.703Zm2.605,7.896c0.836,2.547 0.969,5.712 1.029,8.78c0.027,1.356 0.041,2.95 0.188,4.151c0.068,0.563 0.212,1.507 0.642,2.418c0.463,0.978 1.787,2.864 4.375,2.864l-0,-8.703c2.169,0 3.18,1.614 3.405,2.091c0.193,0.409 0.177,0.622 0.133,0.267c-0.077,-0.634 -0.092,-1.624 -0.124,-3.26c-0.057,-2.915 -0.159,-7.366 -1.465,-11.345l-8.183,2.737Zm6.234,18.213c1.084,0 2.263,-0.254 3.356,-0.947c1.085,-0.687 1.807,-1.628 2.27,-2.551c0.845,-1.681 0.994,-3.626 0.994,-5.205l-8.62,0c-0,0.557 -0.032,0.94 -0.071,1.185c-0.041,0.258 -0.071,0.244 0.009,0.085c0.095,-0.189 0.343,-0.573 0.838,-0.887c0.503,-0.318 0.975,-0.383 1.224,-0.383l-0,8.703Zm6.62,-8.703c0,-0.104 0.01,-0.125 0.001,-0.084c-0.011,0.046 -0.04,0.143 -0.108,0.265l-7.506,-4.279c-0.748,1.337 -1.007,2.765 -1.007,4.098l8.62,0Zm-0.107,0.181c-0.232,0.415 -0.521,0.465 -0.277,0.379c0.319,-0.113 1.024,-0.258 2.331,-0.258l0,-8.703c-3.181,0 -7.47,0.565 -9.56,4.303l7.506,4.279Zm2.054,0.121c-0.211,0 -0.607,-0.065 -1.019,-0.333c-0.382,-0.248 -0.551,-0.524 -0.589,-0.593c-0.028,-0.051 0.016,0.015 0.083,0.286c0.065,0.263 0.124,0.604 0.183,1.054c0.078,0.605 0.221,2.24 0.439,3.251c0.12,0.551 0.371,1.546 1.006,2.482c0.775,1.144 2.195,2.254 4.181,2.254l0,-8.703c1.451,0 2.468,0.848 2.932,1.533c0.323,0.476 0.354,0.814 0.303,0.578c-0.122,-0.565 -0.12,-1.03 -0.314,-2.525c-0.14,-1.076 -0.411,-2.861 -1.277,-4.436c-0.471,-0.856 -1.19,-1.788 -2.277,-2.496c-1.119,-0.728 -2.378,-1.055 -3.651,-1.055l0,8.703Zm4.284,8.401c0.237,0 1.204,0.032 1.993,-0.11c0.509,-0.091 1.242,-0.29 1.988,-0.784c0.791,-0.523 1.352,-1.214 1.72,-1.932c0.604,-1.176 0.679,-2.439 0.711,-3.049c0.042,-0.768 0.04,-1.749 0.04,-2.828l-8.62,0c0,1.186 -0.002,1.881 -0.027,2.354c-0.012,0.225 -0.025,0.281 -0.018,0.241c0.006,-0.028 0.057,-0.326 0.261,-0.723c0.235,-0.457 0.627,-0.958 1.21,-1.343c0.536,-0.355 1.018,-0.467 1.226,-0.505c0.188,-0.033 0.281,-0.027 0.141,-0.024c-0.151,0.003 -0.282,0 -0.625,0l0,8.703Zm6.452,-8.703c0,-0.416 0.024,-0.678 0.046,-0.827c0.022,-0.15 0.034,-0.123 -0.022,0.008c-0.063,0.148 -0.196,0.386 -0.436,0.628c-0.241,0.243 -0.491,0.389 -0.673,0.468c-0.162,0.07 -0.239,0.073 -0.154,0.06c0.085,-0.014 0.252,-0.032 0.551,-0.042c0.299,-0.009 0.651,-0.009 1.109,-0.005c0.434,0.004 0.978,0.012 1.539,0.012l0,-8.703c-0.858,0 -2.06,-0.03 -2.926,-0.002c-0.895,0.029 -2.221,0.121 -3.512,0.679c-1.532,0.662 -2.722,1.842 -3.412,3.455c-0.595,1.394 -0.73,2.908 -0.73,4.269l8.62,0Zm1.96,0.302c-0.199,0 -0.582,-0.061 -0.984,-0.319c-0.374,-0.24 -0.54,-0.507 -0.577,-0.572c-0.027,-0.048 0.019,0.02 0.089,0.293c0.068,0.264 0.131,0.606 0.195,1.059c0.087,0.619 0.247,2.246 0.492,3.285c0.134,0.566 0.411,1.566 1.081,2.498c0.815,1.134 2.232,2.157 4.144,2.157l-0,-8.703c1.355,0 2.348,0.76 2.833,1.435c0.34,0.473 0.38,0.816 0.328,0.594c-0.127,-0.536 -0.135,-1.008 -0.344,-2.49c-0.15,-1.072 -0.439,-2.855 -1.321,-4.424c-0.48,-0.853 -1.205,-1.776 -2.293,-2.475c-1.117,-0.718 -2.373,-1.041 -3.643,-1.041l0,8.703Zm4.44,8.401c0.991,0 2.172,-0.253 3.236,-1.061c1.04,-0.791 1.559,-1.802 1.817,-2.564c0.247,-0.729 0.315,-1.404 0.341,-1.83c0.028,-0.439 0.022,-0.867 0.019,-1.117c-0.003,-0.312 -0.003,-0.436 0.002,-0.528c0.005,-0.102 0.008,0.078 -0.086,0.382c-0.102,0.328 -0.389,1.022 -1.122,1.609c-0.773,0.62 -1.584,0.758 -2.065,0.758l-0,-8.703c-1.017,-0 -2.227,0.273 -3.296,1.131c-1.03,0.825 -1.511,1.859 -1.741,2.595c-0.221,0.712 -0.278,1.368 -0.298,1.776c-0.022,0.418 -0.015,0.838 -0.013,1.069c0.003,0.295 0.001,0.41 -0.003,0.482c-0.005,0.083 -0.005,-0.115 0.104,-0.437c0.12,-0.354 0.431,-1.025 1.158,-1.577c0.75,-0.57 1.513,-0.688 1.947,-0.688l-0,8.703Zm2.142,-4.351c0.364,-0 0.169,0.045 -0.167,-0.104c-0.456,-0.203 -0.651,-0.508 -0.647,-0.502c0.058,0.104 0.281,0.588 0.472,1.812c0.187,1.197 0.316,2.907 0.316,5.321l8.62,-0c-0,-5.137 -0.493,-8.876 -1.89,-11.391c-0.8,-1.439 -1.932,-2.553 -3.392,-3.203c-1.339,-0.596 -2.606,-0.636 -3.312,-0.636l-0,8.703Zm-0.026,6.527c-0,2.638 0.078,4.652 0.139,6.214c0.063,1.632 0.094,2.545 0.052,3.263c-0.036,0.593 -0.116,0.891 -0.24,1.184c-0.159,0.376 -0.476,0.936 -1.239,1.968l6.912,5.202c0.909,-1.232 1.696,-2.435 2.252,-3.747c0.591,-1.394 0.837,-2.71 0.919,-4.084c0.075,-1.249 0.015,-2.658 -0.043,-4.129c-0.06,-1.542 -0.132,-3.413 -0.132,-5.871l-8.62,-0Zm-1.288,12.629c-1.672,2.265 -3.279,4.441 -4.467,6.051c-0.594,0.805 -1.084,1.468 -1.425,1.929c-0.171,0.232 -0.304,0.412 -0.395,0.535c-0.045,0.062 -0.135,0.183 -0.136,0.185c-0.001,0.002 -0.002,0.002 -0.002,0.003l-0.001,0l3.456,2.601c3.456,2.601 3.456,2.601 3.456,2.601l0,-0.001c0.001,-0 0.001,-0.001 0.002,-0.002c0.001,-0.002 0.021,-0.029 0.033,-0.045c0.023,-0.032 0.058,-0.079 0.103,-0.14c0.091,-0.123 0.225,-0.304 0.395,-0.535c0.341,-0.462 0.831,-1.125 1.425,-1.93c1.188,-1.609 2.795,-3.785 4.468,-6.05l-6.912,-5.202Zm-2.97,11.304c-4.31,0 -4.31,-0.001 -4.31,-0.002l-0,-0.023c-0,-0.004 -0,-0.005 -0,-0.003c-0,0.004 -0.001,0.022 -0.002,0.049c-0.002,0.058 -0.006,0.154 -0.017,0.274c-0.023,0.261 -0.064,0.539 -0.123,0.76c-0.073,0.278 -0.093,0.164 0.116,-0.101c0.128,-0.161 0.371,-0.414 0.761,-0.625c0.411,-0.222 0.859,-0.329 1.277,-0.329l0,8.703c2.151,0 3.736,-1.103 4.695,-2.314c0.856,-1.08 1.266,-2.282 1.48,-3.092c0.229,-0.867 0.331,-1.677 0.38,-2.232c0.025,-0.287 0.039,-0.531 0.045,-0.712c0.004,-0.091 0.006,-0.167 0.007,-0.227c0,-0.029 0.001,-0.123 0.001,-0.124c-0,-0.001 -0,-0.002 -4.31,-0.002Zm-2.298,0c0.87,0 1.328,0.436 1.226,0.349c-0.156,-0.133 -0.344,-0.35 -0.917,-1.019c-0.445,-0.52 -1.203,-1.406 -2.161,-2.132c-1.033,-0.781 -2.516,-1.549 -4.418,-1.549l0,8.703c-0.508,-0 -0.798,-0.225 -0.753,-0.19c0.12,0.09 0.325,0.292 0.812,0.86c0.358,0.419 1.071,1.29 1.871,1.972c0.854,0.729 2.321,1.709 4.34,1.709l0,-8.703Zm-6.27,-4.351c-3.709,-0 -5.905,2.806 -6.767,4.103c-0.53,0.799 -0.914,1.566 -1.162,2.118c-0.128,0.281 -0.226,0.522 -0.296,0.701c-0.035,0.091 -0.063,0.167 -0.085,0.226c-0.011,0.03 -0.035,0.097 -0.038,0.105c-0.001,0.005 -0.002,0.008 -0.004,0.012c-0.001,0.002 -0.001,0.004 -0.001,0.006c-0.001,0 -0.001,0.001 -0.001,0.002c-0.001,0.001 -0.001,0.002 4.07,1.43c4.072,1.427 4.071,1.428 4.071,1.43c-0,-0 -0,0.001 -0.001,0.002c-0,0.001 -0.006,0.018 -0.007,0.021c-0.002,0.004 -0.002,0.006 -0.002,0.004c0.002,-0.005 0.009,-0.022 0.02,-0.051c0.022,-0.058 0.063,-0.158 0.12,-0.284c0.119,-0.265 0.283,-0.585 0.476,-0.874c0.093,-0.142 0.179,-0.254 0.253,-0.337c0.074,-0.085 0.115,-0.117 0.115,-0.117c-0.006,0.005 -0.282,0.206 -0.761,0.206l0,-8.703Zm-4.284,4.351l-12.851,0l-0,8.703l12.851,0l0,-8.703Zm17.162,-4.351l-0,-17.406l-8.62,-0l-0,17.406l8.62,-0Zm-4.31,-21.758l-4.284,0l0,8.703l4.284,0l-0,-8.703Zm-8.594,4.352l-0,17.406l8.62,-0l0,-17.406l-8.62,-0Zm4.31,21.757l4.284,0l-0,-8.703l-4.284,0l0,8.703Zm-12.878,-8.703c0,1.375 0.459,3.061 0.978,4.306c0.276,0.663 0.696,1.514 1.312,2.278c0.491,0.61 1.876,2.119 4.162,2.119l0,-8.703c0.875,0 1.533,0.308 1.911,0.554c0.36,0.233 0.554,0.464 0.613,0.537c0.107,0.132 0.063,0.116 -0.053,-0.161c-0.098,-0.236 -0.189,-0.52 -0.251,-0.777c-0.029,-0.124 -0.046,-0.216 -0.054,-0.268c-0.009,-0.066 0.002,-0.019 0.002,0.115l-8.62,0Zm6.452,8.703c2.25,0 3.634,-1.45 4.162,-2.097c0.631,-0.774 1.054,-1.636 1.33,-2.305c0.525,-1.268 0.96,-2.943 0.96,-4.301l-8.62,0c0,-0.174 0.018,-0.119 -0.053,0.187c-0.06,0.257 -0.148,0.535 -0.242,0.763c-0.111,0.269 -0.149,0.27 -0.031,0.125c0.066,-0.081 0.266,-0.313 0.631,-0.544c0.385,-0.245 1.026,-0.531 1.863,-0.531l0,8.703Zm6.452,-8.703l0,-8.703l-8.62,0l0,8.703l8.62,0Zm0,-8.703c0,-1.375 -0.459,-3.06 -0.978,-4.305c-0.276,-0.664 -0.696,-1.515 -1.312,-2.279c-0.491,-0.61 -1.875,-2.119 -4.162,-2.119l0,8.703c-0.875,0 -1.532,-0.308 -1.91,-0.553c-0.36,-0.234 -0.555,-0.464 -0.613,-0.537c-0.107,-0.133 -0.063,-0.117 0.052,0.16c0.098,0.236 0.189,0.52 0.251,0.777c0.03,0.124 0.046,0.216 0.054,0.268c0.01,0.067 -0.002,0.02 -0.002,-0.115l8.62,0Zm-6.452,-8.703c-2.25,0 -3.634,1.45 -4.161,2.098c-0.631,0.773 -1.055,1.635 -1.331,2.305c-0.524,1.268 -0.96,2.942 -0.96,4.3l8.62,0c0,0.175 -0.018,0.119 0.054,-0.187c0.059,-0.257 0.147,-0.534 0.241,-0.763c0.112,-0.269 0.15,-0.27 0.031,-0.125c-0.066,0.081 -0.266,0.313 -0.631,0.545c-0.385,0.245 -1.026,0.53 -1.863,0.53l0,-8.703Zm-6.452,8.703l0,8.703l8.62,0l0,-8.703l-8.62,0Zm-8.568,8.703c0,1.375 0.459,3.061 0.978,4.306c0.277,0.663 0.697,1.514 1.312,2.278c0.492,0.61 1.876,2.119 4.162,2.119l0,-8.703c0.875,0 1.533,0.308 1.911,0.554c0.36,0.233 0.554,0.464 0.613,0.537c0.107,0.132 0.063,0.116 -0.052,-0.161c-0.099,-0.236 -0.19,-0.52 -0.251,-0.777c-0.03,-0.124 -0.047,-0.216 -0.054,-0.268c-0.01,-0.066 0.002,-0.019 0.002,0.115l-8.621,0Zm6.452,8.703c2.25,0 3.634,-1.45 4.162,-2.097c0.631,-0.774 1.054,-1.636 1.331,-2.305c0.524,-1.268 0.959,-2.943 0.959,-4.301l-8.62,0c0,-0.174 0.018,-0.119 -0.053,0.187c-0.06,0.257 -0.148,0.535 -0.242,0.763c-0.111,0.269 -0.149,0.27 -0.031,0.125c0.066,-0.081 0.266,-0.313 0.631,-0.544c0.386,-0.245 1.027,-0.531 1.863,-0.531l0,8.703Zm6.452,-8.703l0,-8.703l-8.62,0l0,8.703l8.62,0Zm0,-8.703c0,-1.375 -0.458,-3.06 -0.977,-4.305c-0.277,-0.664 -0.697,-1.515 -1.313,-2.279c-0.491,-0.61 -1.875,-2.119 -4.162,-2.119l0,8.703c-0.875,0 -1.532,-0.308 -1.91,-0.553c-0.36,-0.234 -0.554,-0.464 -0.613,-0.537c-0.107,-0.133 -0.063,-0.117 0.052,0.16c0.099,0.236 0.189,0.52 0.251,0.777c0.03,0.124 0.047,0.216 0.054,0.268c0.01,0.067 -0.002,0.02 -0.002,-0.115l8.62,0Zm-6.452,-8.703c-2.25,0 -3.633,1.45 -4.161,2.098c-0.631,0.773 -1.055,1.635 -1.331,2.305c-0.524,1.268 -0.96,2.942 -0.96,4.3l8.621,0c-0,0.175 -0.019,0.119 0.053,-0.187c0.06,-0.257 0.147,-0.534 0.241,-0.763c0.112,-0.269 0.15,-0.27 0.031,-0.125c-0.066,0.081 -0.265,0.313 -0.63,0.545c-0.386,0.245 -1.027,0.53 -1.864,0.53l0,-8.703Zm-6.452,8.703l0,8.703l8.621,0l-0,-8.703l-8.621,0Z" style="fill-rule:nonzero;"/><path d="M25.86,65.273c-0,-0 -9.507,-7.392 -12.852,-13.055c-3.345,-5.662 -9.683,-12.876 -8.568,-17.406c1.115,-4.53 5.223,-5.958 8.568,-2.56c3.345,3.397 5.598,10.759 7.827,9.626c2.23,-1.132 0.558,-11.891 -1.672,-18.12c-2.23,-6.228 -4.554,-19.406 0,-19.406c4.555,-0 4.555,4.351 6.697,10.878c2.142,6.528 0.469,15.231 2.142,15.231c1.672,-0 2.31,-1.521 2.31,-4.352c0,-0.769 0.149,-1.42 0.45,-1.959c0.808,-1.444 2.715,-2.09 5.807,-2.09c4.247,-0 2.142,8.401 4.284,8.401c2.142,-0 2.142,0.178 2.142,-4.352c0,-4.53 1.986,-4.049 6.27,-4.049c4.284,-0 2.21,8.401 4.44,8.401c2.23,-0 -0,-4.352 2.142,-4.352c2.142,0 4.284,0.686 4.284,10.879c-0,10.192 1.202,10.7 -2.142,15.23c-3.345,4.53 -6.426,8.703 -6.426,8.703c-0,0 -0,4.352 -2.298,4.352c-2.298,-0 -3.483,-4.352 -6.27,-4.352c-2.787,0 -4.284,4.352 -4.284,4.352l-12.851,-0Zm25.703,-8.703l-0,-17.406l-4.284,-0l0,17.406l4.284,-0Zm-12.852,-4.352c0,1.179 0.994,4.352 2.142,4.352c1.183,-0 2.142,-3.153 2.142,-4.352l0,-8.703c0,-1.179 -0.994,-4.351 -2.142,-4.351c-1.183,-0 -2.142,3.153 -2.142,4.351l0,8.703Zm-8.568,0c0,1.179 0.994,4.352 2.142,4.352c1.183,-0 2.142,-3.153 2.142,-4.352l0,-8.703c0,-1.179 -0.993,-4.351 -2.142,-4.351c-1.183,-0 -2.142,3.153 -2.142,4.351l0,8.703Z" style="fill:#fff;"/></g></svg>